<svg width="28" height="30" viewBox="0 0 28 30" fill="none" xmlns="http://www.w3.org/2000/svg">
<path d="M25.4398 12.5519H24.5V12.5H14V17.5H20.5935C19.6315 20.4106 17.0468 22.5 14 22.5C10.1343 22.5 7.00004 19.1419 7.00004 15C7.00004 10.8581 10.1343 7.5 14 7.5C15.7845 7.5 17.4079 8.22125 18.644 9.39937L21.9439 5.86375C19.8602 3.78312 17.073 2.5 14 2.5C7.55712 2.5 2.33337 8.09688 2.33337 15C2.33337 21.9031 7.55712 27.5 14 27.5C20.443 27.5 25.6667 21.9031 25.6667 15C25.6667 14.1619 25.5862 13.3438 25.4398 12.5519Z" fill="#FFC107"/>
<path d="M3.67847 9.18188L7.51155 12.1938C8.54872 9.4425 11.0605 7.5 14 7.5C15.7844 7.5 17.4078 8.22125 18.6439 9.39937L21.9438 5.86375C19.8601 3.78312 17.073 2.5 14 2.5C9.5188 2.5 5.63263 5.21062 3.67847 9.18188Z" fill="#FF3D00"/>
<path d="M14 27.4999C17.0135 27.4999 19.7517 26.2643 21.8219 24.2549L18.2111 20.9812C17.0004 21.9677 15.521 22.5012 14 22.4999C10.9655 22.4999 8.38894 20.4268 7.41827 17.5337L3.61377 20.6743C5.5446 24.7224 9.46577 27.4999 14 27.4999Z" fill="#4CAF50"/>
<path d="M25.4397 12.5519H24.5V12.5H14V17.5H20.5934C20.1333 18.8853 19.3045 20.0957 18.2093 20.9819L18.2111 20.9806L21.8219 24.2544C21.5664 24.5031 25.6667 21.25 25.6667 15C25.6667 14.1619 25.5862 13.3438 25.4397 12.5519Z" fill="#1976D2"/>
</svg>
