<svg width="24" height="24" viewBox="0 0 24 24" fill="none" xmlns="http://www.w3.org/2000/svg">
<path d="M22.6159 15.5537L17.1823 13.1178L17.1615 13.1086C16.8083 12.9563 16.4226 12.8951 16.0396 12.9303C15.6566 12.9656 15.2886 13.0963 14.9692 13.3105C14.9244 13.3405 14.8812 13.3729 14.8399 13.4075L12.2656 15.5998C10.7656 14.7863 9.21597 13.2494 8.40134 11.7678L10.6006 9.15315C10.636 9.11094 10.6687 9.06663 10.6987 9.02045C10.9073 8.70216 11.0339 8.33722 11.0674 7.95814C11.1008 7.57905 11.0399 7.19759 10.8902 6.84771C10.8867 6.84101 10.8836 6.83407 10.881 6.82694L8.44634 1.38414C8.24649 0.928963 7.90541 0.550221 7.47358 0.303964C7.04174 0.0577067 6.5421 -0.0429812 6.0486 0.0168014C4.3736 0.236837 2.83598 1.05906 1.7229 2.32991C0.609813 3.60076 -0.0026096 5.23333 8.35872e-06 6.92271C8.35872e-06 16.3394 7.66055 24 17.0773 24C18.7667 24.0026 20.3992 23.3902 21.6701 22.2771C22.9409 21.164 23.7632 19.6264 23.9832 17.9514C24.043 17.4579 23.9423 16.9583 23.696 16.5264C23.4498 16.0946 23.071 15.7535 22.6159 15.5537ZM17.0773 21.2307C13.284 21.2261 9.64734 19.7172 6.96507 17.0349C4.28279 14.3527 2.77388 10.716 2.7693 6.92271C2.76665 5.96673 3.09121 5.03861 3.68902 4.2926C4.28684 3.54659 5.12193 3.0276 6.05552 2.82186L8.2271 7.66811L6.01629 10.3012C5.98055 10.3438 5.94741 10.3885 5.91705 10.4351C5.69914 10.768 5.57103 11.1517 5.54515 11.5488C5.51927 11.9459 5.59651 12.3429 5.76936 12.7013C6.8563 14.926 9.09597 17.1506 11.3437 18.2399C11.7045 18.4109 12.1035 18.4854 12.5018 18.4561C12.9 18.4268 13.2838 18.2946 13.6157 18.0726C13.6603 18.0425 13.7031 18.0097 13.7438 17.9745L16.3319 15.7741L21.1781 17.9445C20.9724 18.8781 20.4534 19.7132 19.7074 20.311C18.9614 20.9088 18.0333 21.2333 17.0773 21.2307Z" fill="black"/>
</svg>
