<svg width="35" height="35" viewBox="0 0 35 35" fill="none" xmlns="http://www.w3.org/2000/svg">
<path d="M6.01562 30.625C5.00034 30.625 4.02664 30.2217 3.30873 29.5038C2.59082 28.7859 2.1875 27.8122 2.1875 26.7969V21.3281C2.1875 20.893 2.36035 20.4757 2.66803 20.168C2.9757 19.8604 3.393 19.6875 3.82812 19.6875C4.26325 19.6875 4.68055 19.8604 4.98822 20.168C5.2959 20.4757 5.46875 20.893 5.46875 21.3281V26.7969C5.46875 27.0988 5.71375 27.3438 6.01562 27.3438H28.9844C29.1294 27.3438 29.2685 27.2861 29.3711 27.1836C29.4736 27.081 29.5312 26.9419 29.5312 26.7969V21.3281C29.5312 20.893 29.7041 20.4757 30.0118 20.168C30.3195 19.8604 30.7368 19.6875 31.1719 19.6875C31.607 19.6875 32.0243 19.8604 32.332 20.168C32.6396 20.4757 32.8125 20.893 32.8125 21.3281V26.7969C32.8125 27.8122 32.4092 28.7859 31.6913 29.5038C30.9734 30.2217 29.9997 30.625 28.9844 30.625H6.01562Z" fill="white"/>
<path d="M25.7697 10.3254C25.9219 10.4777 26.0427 10.6584 26.1251 10.8574C26.2075 11.0563 26.2499 11.2695 26.2499 11.4848C26.2499 11.7001 26.2075 11.9133 26.1251 12.1123C26.0427 12.3112 25.9219 12.4919 25.7697 12.6442C25.6174 12.7964 25.4367 12.9172 25.2378 12.9996C25.0388 13.082 24.8256 13.1244 24.6103 13.1244C24.395 13.1244 24.1818 13.082 23.9829 12.9996C23.7839 12.9172 23.6032 12.7964 23.4509 12.6442L19.1416 8.337V20.7817C19.1416 21.2168 18.9687 21.6341 18.661 21.9418C18.3534 22.2495 17.9361 22.4223 17.5009 22.4223C17.0658 22.4223 16.6485 22.2495 16.3408 21.9418C16.0332 21.6341 15.8603 21.2168 15.8603 20.7817V8.337L11.5509 12.6442C11.3987 12.7964 11.2179 12.9172 11.019 12.9996C10.8201 13.082 10.6069 13.1244 10.3916 13.1244C10.1762 13.1244 9.96303 13.082 9.76411 12.9996C9.56518 12.9172 9.38443 12.7964 9.23218 12.6442C9.07993 12.4919 8.95916 12.3112 8.87676 12.1123C8.79436 11.9133 8.75195 11.7001 8.75195 11.4848C8.75195 11.2695 8.79436 11.0563 8.87676 10.8574C8.95916 10.6584 9.07993 10.4777 9.23218 10.3254L16.3416 3.21606C16.4937 3.06367 16.6745 2.94278 16.8734 2.86029C17.0723 2.77781 17.2856 2.73535 17.5009 2.73535C17.7163 2.73535 17.9295 2.77781 18.1285 2.86029C18.3274 2.94278 18.5081 3.06367 18.6603 3.21606L25.7697 10.3254Z" fill="white"/>
</svg>
